<svg id="Grupo_2381" data-name="Grupo 2381" xmlns="http://www.w3.org/2000/svg" width="105.988" height="105.988" viewBox="0 0 105.988 105.988">
  <path id="Trazado_703" data-name="Trazado 703" d="M0,0H105.988V105.988H0Z" fill="none"/>
  <path id="Trazado_704" data-name="Trazado 704" d="M11.914,70.659V11.808H2V2H16.871a4.931,4.931,0,0,1,4.957,4.9v58.85H83.483L93.4,26.521H31.742V16.713h68.01a4.976,4.976,0,0,1,3.908,1.887,4.864,4.864,0,0,1,.9,4.209L92.167,71.851a4.947,4.947,0,0,1-4.808,3.712H16.871A4.931,4.931,0,0,1,11.914,70.659Zm9.914,34.329a9.809,9.809,0,1,1,9.914-9.808A9.862,9.862,0,0,1,21.828,104.988Zm59.484,0a9.809,9.809,0,1,1,9.914-9.808A9.862,9.862,0,0,1,81.311,104.988Z" fill="#fff"/>
</svg>
