<svg xmlns="http://www.w3.org/2000/svg" width="665.078" height="221.692" viewBox="0 0 665.078 221.692">
  <g id="Grupo_2681" data-name="Grupo 2681" transform="translate(-653.446 -421.398)">
    <path id="Trazado_664" data-name="Trazado 664" d="M1303.712,512.416l-299.9-88.433a62.828,62.828,0,0,0-35.67,0L668.26,512.416a20.685,20.685,0,0,0,0,39.67l299.883,88.427a63.016,63.016,0,0,0,35.67,0l299.9-88.427a20.688,20.688,0,0,0,0-39.67m-2.343,31.661-299.9,88.444a54.768,54.768,0,0,1-30.979,0L670.606,544.077a12.336,12.336,0,0,1,0-23.664l299.887-88.442a54.922,54.922,0,0,1,30.979,0l299.9,88.442a12.339,12.339,0,0,1,0,23.664" transform="translate(0.002)" fill="#0d0e0e" fill-rule="evenodd"/>
    <path id="Trazado_665" data-name="Trazado 665" d="M748.562,456.624h18.252l-4.973,26.85h23.374l4.965-26.85h18.268L795.195,528.1H776.943l5.3-28.584H758.86L753.567,528.1H735.315Z" transform="translate(92.717 39.893)" fill="#0d0e0e"/>
    <path id="Trazado_666" data-name="Trazado 666" d="M816.338,465.974l-1.047,5.707H815.1c-1.331-3.282-5.468-7.534-14.258-7.534a26.774,26.774,0,0,0-2.836.139c-13.358,1.343-26.359,12.025-29.409,28.449-2.843,15.358,4.623,28.688,21.623,28.688a25.407,25.407,0,0,0,7.786-1.228,17.9,17.9,0,0,0,9.293-6.4h.182l-1.068,5.785h16.036l9.935-53.606Zm-4.949,26.76c-.883,4.738-5.071,12.2-13.379,13.511a15.72,15.72,0,0,1-2.6.2c-9.647,0-11.744-8.5-10.82-13.52,1.034-5.542,5.677-12.443,13.415-13.622a14.087,14.087,0,0,1,2.375-.19c9.084,0,12.2,7.167,11,13.618" transform="translate(129.744 48.412)" fill="#0d0e0e"/>
    <path id="Trazado_667" data-name="Trazado 667" d="M854.472,499.864c-5.2,12.174-17.836,22.12-32.42,22.12-16.339,0-26.5-12.748-23.523-28.675,2.943-15.757,17.659-28.509,33.8-28.509,14.3,0,24.116,9.387,24.378,22.5h-16.32c-1.064-3.653-3.553-7.506-10.272-7.506-7.6-.4-13.927,5.881-15.367,13.6-1.457,7.835,2.606,13.614,10.3,13.614,6.7,0,10.63-3.851,13-7.14Z" transform="translate(163.721 49.152)" fill="#0d0e0e"/>
    <path id="Trazado_668" data-name="Trazado 668" d="M860.682,464.7a28.726,28.726,0,0,0-4.107.3c-14.569,2.058-26.8,14.785-29.341,28.483-2.949,15.938,7.773,28.4,23.146,28.4a29.266,29.266,0,0,0,6.195-.685,31.51,31.51,0,0,0,9.963-4.148,40.984,40.984,0,0,0,13.447-13.718H863.563a15.551,15.551,0,0,1-6.988,4.555,13.954,13.954,0,0,1-3.7.482c-6.276,0-10.886-3.776-10.667-10.148h40.184a24.868,24.868,0,0,0,1.169-4.254c3.02-16.32-6.555-29.266-22.877-29.266m-4.107,22.7H844.4a14.94,14.94,0,0,1,12.176-9.091,16.832,16.832,0,0,1,1.7-.072c8.3,0,10.383,5.979,10.455,9.163Z" transform="translate(196.26 49.043)" fill="#0d0e0e"/>
    <path id="Trazado_669" data-name="Trazado 669" d="M895.794,478.182c-2.233,0-10.3-.313-17.22,5.779l6.15-31.567H868.5l-14.985,80.951h16.141l.941-4.984h.2c1.836,3.691,6.583,6.651,13.654,6.82,13.784,0,29.172-9.66,32.789-28.987,3.8-20.263-10.1-28.012-21.446-28.012m7.073,29.057a16.328,16.328,0,0,1-1.985,5.293,18.47,18.47,0,0,1-3.6,4.38,17.482,17.482,0,0,1-2.292,1.7,16.125,16.125,0,0,1-2.533,1.28,15.256,15.256,0,0,1-5.551,1.06,11.885,11.885,0,0,1-4.934-.981,9.469,9.469,0,0,1-2.13-1.311,9.262,9.262,0,0,1-1.7-1.84,9.776,9.776,0,0,1-1.2-2.214,12.388,12.388,0,0,1-.642-2.425,14.907,14.907,0,0,1,.124-5.045,16.405,16.405,0,0,1,1.987-5.244,18.634,18.634,0,0,1,1.593-2.316,17.318,17.318,0,0,1,1.962-2.015,16.634,16.634,0,0,1,2.267-1.68,16.854,16.854,0,0,1,2.518-1.243,15.168,15.168,0,0,1,5.5-1.021,12.236,12.236,0,0,1,2.484.247,10.409,10.409,0,0,1,2.376.751,9.787,9.787,0,0,1,3.83,3.1,11.5,11.5,0,0,1,1.224,2.173,12.01,12.01,0,0,1,.712,2.386,13.279,13.279,0,0,1-.017,4.958" transform="translate(226.578 35.102)" fill="#0d0e0e"/>
  </g>
</svg>
