<svg xmlns="http://www.w3.org/2000/svg" width="150.816" height="164.226" viewBox="0 0 150.816 164.226">
  <g id="Grupo_2678" data-name="Grupo 2678" transform="translate(10927.001 23535.139)">
    <g id="Grupo_2682" data-name="Grupo 2682">
      <path id="Trazado_750" data-name="Trazado 750" d="M1268.825,307.38v50.047a32.066,32.066,0,0,0,16.033,27.77l43.342,25.023a32.064,32.064,0,0,0,32.066,0l43.342-25.023a32.066,32.066,0,0,0,16.033-27.77V307.38a32.066,32.066,0,0,0-16.033-27.77l-43.342-25.023a32.064,32.064,0,0,0-32.066,0l-43.342,25.023A32.066,32.066,0,0,0,1268.825,307.38Z" transform="translate(-12195.826 -23785.43)" fill="#fff"/>
      <g id="Grupo_2250" data-name="Grupo 2250" transform="translate(-10911.76 -23500.178)">
        <path id="Trazado_744" data-name="Trazado 744" d="M0,0H94.306V94.306H0Z" fill="none"/>
        <path id="Trazado_745" data-name="Trazado 745" d="M51.829,30.856,30.752,9.778l5.556-5.556L66.871,34.785,36.308,65.348l-5.556-5.556L51.829,38.714H4V30.856Z" transform="translate(11.718 12.368)"/>
      </g>
    </g>
  </g>
</svg>
