<svg xmlns="http://www.w3.org/2000/svg" width="150.816" height="164.226" viewBox="0 0 150.816 164.226">
  <g id="Grupo_2679" data-name="Grupo 2679" transform="translate(0 0)">
    <path id="Trazado_750" data-name="Trazado 750" d="M1419.641,307.38v50.047a32.066,32.066,0,0,1-16.033,27.77l-43.342,25.023a32.064,32.064,0,0,1-32.066,0L1284.858,385.2a32.066,32.066,0,0,1-16.033-27.77V307.38a32.066,32.066,0,0,1,16.033-27.77l43.342-25.023a32.064,32.064,0,0,1,32.066,0l43.342,25.023A32.066,32.066,0,0,1,1419.641,307.38Z" transform="translate(-1268.825 -250.291)" fill="#fff"/>
    <g id="Grupo_2250" data-name="Grupo 2250" transform="translate(41.268 34.961)">
      <path id="Trazado_744" data-name="Trazado 744" d="M94.306,0H0V94.306H94.306Z" fill="none"/>
      <path id="Trazado_745" data-name="Trazado 745" d="M19.042,30.856,40.119,9.778,34.563,4.222,4,34.785,34.563,65.348l5.556-5.556L19.042,38.714H66.871V30.856Z" transform="translate(11.718 12.368)"/>
    </g>
  </g>
</svg>
